<?xml version="1.0" encoding="utf-8"?>
<!-- Generator: Adobe Illustrator 16.0.0, SVG Export Plug-In . SVG Version: 6.00 Build 0)  -->
<!DOCTYPE svg PUBLIC "-//W3C//DTD SVG 1.1//EN" "http://www.w3.org/Graphics/SVG/1.1/DTD/svg11.dtd">
<svg version="1.1" id="Layer_1" xmlns="http://www.w3.org/2000/svg" xmlns:xlink="http://www.w3.org/1999/xlink" x="0px" y="0px"
	 width="150.168px" height="23.776px" viewBox="0 0 150.168 23.776" enable-background="new 0 0 150.168 23.776"
	 xml:space="preserve">
<g>
	<path fill-rule="evenodd" clip-rule="evenodd" fill="#1B1918" d="M5.352,3.05H0.7C0.305,3.05,0,3.354,0,3.75v13.96
		c0,0.391,0.305,0.695,0.7,0.695c0.39,0,0.695-0.305,0.695-0.695v-3.938h3.957c2.957,0,5.352-2.391,5.352-5.348
		C10.704,5.444,8.309,3.05,5.352,3.05L5.352,3.05z M5.352,12.405H1.395V4.42h3.957c2.176,0,3.98,1.805,3.98,4.004
		C9.332,10.597,7.528,12.405,5.352,12.405L5.352,12.405z M5.352,12.405"/>
	<path fill-rule="evenodd" clip-rule="evenodd" fill="#1B1918" d="M21.797,18.405c-3.394,0-6.156-2.762-6.156-6.176V3.75
		c0-0.395,0.305-0.7,0.676-0.7c0.39,0,0.695,0.305,0.695,0.7v8.48c0,2.652,2.152,4.785,4.785,4.785c2.653,0,4.785-2.133,4.785-4.785
		V3.75c0-0.395,0.305-0.7,0.696-0.7c0.39,0,0.695,0.305,0.695,0.7v8.48C27.973,15.644,25.211,18.405,21.797,18.405L21.797,18.405z
		 M21.797,18.405"/>
	<path fill-rule="evenodd" clip-rule="evenodd" fill="#1B1918" d="M39.918,13.585c2.262-0.628,3.914-2.695,3.914-5.156
		c0-2.976-2.394-5.371-5.351-5.371h-4.656c-0.391,0-0.696,0.305-0.696,0.695v13.965c0,0.391,0.305,0.695,0.696,0.695
		c0.394,0,0.699-0.305,0.699-0.695V13.78h3.652l4.262,4.414c0.133,0.152,0.305,0.219,0.5,0.219c0.176,0,0.351-0.066,0.48-0.195
		c0.282-0.261,0.282-0.695,0.024-0.98L39.918,13.585z M34.524,4.429h3.957c2.195,0,3.98,1.805,3.98,4c0,2.176-1.785,3.98-3.98,3.98
		h-3.957V4.429z M34.524,4.429"/>
	<path fill-rule="evenodd" clip-rule="evenodd" fill="#1B1918" d="M61.329,17.429l-6.11-13.965
		c-0.105-0.261-0.363-0.414-0.625-0.414c-0.285,0-0.523,0.153-0.652,0.414l-6.11,13.965c-0.152,0.348,0.024,0.762,0.372,0.914
		c0.347,0.152,0.761,0,0.914-0.348l1.605-3.699h7.719l1.629,3.699c0.109,0.258,0.347,0.41,0.633,0.41
		c0.085,0,0.171-0.02,0.281-0.063C61.329,18.19,61.481,17.776,61.329,17.429L61.329,17.429z M51.332,12.905l3.262-7.442l3.238,7.442
		H51.332z M51.332,12.905"/>
	<path fill-rule="evenodd" clip-rule="evenodd" fill="#1B1918" d="M98.668,18.418c-2.844,0-4.973-2.263-4.973-5.267
		c0-1.426,0.469-2.73,1.328-3.707c0.898-1.012,2.164-1.559,3.547-1.559c2.789,0,4.797,2.202,4.797,5.266
		c0,0.336-0.27,0.625-0.62,0.625h-7.782c0.273,1.974,1.773,3.395,3.703,3.395c1.309,0,2.457-0.625,3.121-1.753
		c0.195-0.293,0.566-0.372,0.859-0.196s0.391,0.566,0.215,0.855C101.946,17.562,100.426,18.418,98.668,18.418L98.668,18.418z
		 M94.965,12.526h7.117c-0.234-2.026-1.598-3.414-3.512-3.414C96.661,9.113,95.219,10.519,94.965,12.526L94.965,12.526z
		 M94.965,12.526"/>
	<path fill-rule="evenodd" clip-rule="evenodd" fill="#1B1918" d="M121.204,18.413c-0.333,0-0.625-0.273-0.625-0.625V8.487
		c0-0.332,0.292-0.605,0.625-0.605c0.348,0,0.621,0.274,0.621,0.605v9.301C121.825,18.14,121.551,18.413,121.204,18.413
		L121.204,18.413z M121.204,18.413"/>
	<path fill-rule="evenodd" clip-rule="evenodd" fill="#1B1918" d="M136.165,7.886c-0.352,0-0.625,0.274-0.625,0.606v1.09
		c-0.898-1.051-2.223-1.696-3.746-1.696c-2.844,0-4.969,2.262-4.969,5.266s2.125,5.267,4.969,5.267c1.523,0,2.848-0.646,3.746-1.72
		v1.914c0,2.164-1.754,3.918-3.919,3.918c-1.444,0-2.75-0.78-3.452-2.027c-0.156-0.293-0.548-0.41-0.84-0.234
		c-0.293,0.176-0.41,0.547-0.234,0.836c0.898,1.66,2.633,2.672,4.526,2.672c2.845,0,5.165-2.319,5.165-5.164V8.492
		C136.786,8.16,136.497,7.886,136.165,7.886L136.165,7.886z M131.793,17.168c-2.125,0-3.742-1.735-3.742-4.017
		c0-2.301,1.617-4.039,3.742-4.039c2.129,0,3.746,1.738,3.746,4.039C135.54,15.433,133.922,17.168,131.793,17.168L131.793,17.168z
		 M131.793,17.168"/>
	<path fill-rule="evenodd" clip-rule="evenodd" fill="#1B1918" d="M149.059,9.226c-0.762-0.875-1.852-1.344-3.043-1.344
		c-1.227,0-2.32,0.489-3.121,1.305V8.487c0-0.332-0.274-0.605-0.621-0.605c-0.332,0-0.605,0.274-0.605,0.605v9.301
		c0,0.352,0.273,0.621,0.605,0.621c0.347,0,0.621-0.27,0.621-0.621v-5.266c0-0.02,0-0.039,0-0.059v-0.098
		c0-1.813,1.367-3.258,3.121-3.258c1.695,0,2.926,1.387,2.926,3.258v5.422c0,0.352,0.273,0.621,0.625,0.621
		c0.328,0,0.602-0.27,0.602-0.621v-5.422C150.168,11.155,149.778,10.045,149.059,9.226L149.059,9.226z M149.059,9.226"/>
	<path fill-rule="evenodd" clip-rule="evenodd" d="M111.254,8.042h-0.281v0.046h-0.23V8.14h-0.188v0.043h-0.137v0.047h-0.094v0.043
		h-0.141v0.047h-0.09v0.051h-0.137v0.047h-0.094v0.042h-0.094v0.047h-0.047v0.051h-0.137v0.043h-0.047v0.047h-0.047V8.69h-0.141
		v0.047h-0.047v0.051h-0.047v0.043h-0.047v0.046h-0.043V8.92h-0.048v0.055h-0.093v0.043h-0.047v0.09h-0.047v0.047h-0.047v0.051
		h-0.043v0.088h-0.094v0.043h-0.043v0.099h-0.047v0.043h-0.047v0.09h-0.047v0.099h-0.094v0.089h-0.047v0.141h-0.047v0.138h-0.043
		v0.183h-0.047v0.234h-0.047v0.789h0.047v0.23h0.047v0.184h0.043V11.8h0.047v0.09h0.047v0.09h0.094v0.094h0.047v0.09h0.047v0.051
		h0.047v0.09h0.043v0.047h0.094v0.043h0.043v0.055h0.047v0.043h0.047v0.047h0.047v0.044h0.093v0.046h0.048v0.051h0.043v0.043h0.047
		v0.047h0.094v0.043h0.094v0.051h0.094v0.047h0.047v0.043h0.137V13h0.094v0.043h0.094v0.05h0.137v0.047h0.094v0.043h0.184v0.047
		h0.141v0.043h0.09v0.055h0.188v0.043h0.23v0.048h0.188v0.042h0.32v0.051h0.234v0.047h0.324v0.043h0.324v0.047h0.188v0.043h0.184
		v0.051h0.23v0.047h0.184v0.044h0.141v0.046h0.137v0.043h0.141v0.055h0.141v0.043h0.094v0.047h0.137v0.043h0.094v0.051h0.047v0.048
		h0.09v0.043h0.047v0.046h0.043v0.043h0.047v0.051h0.047v0.047h0.047v0.043h0.047v0.047h0.047v0.043h0.047v0.099h0.047v0.046h0.047
		v0.094h0.043v0.137h0.047v0.141h0.047v0.23h0.047v0.32h-0.047v0.23h-0.047v0.141h-0.047v0.098h-0.043v0.09h-0.047v0.09h-0.047
		v0.051h-0.047v0.09h-0.047v0.047h-0.047v0.051h-0.047v0.043h-0.047v0.047h-0.047v0.043h-0.043v0.047h-0.047v0.051h-0.09V16.8
		h-0.047v0.043h-0.094v0.047h-0.094v0.043h-0.09v0.051h-0.094v0.047h-0.141v0.043h-0.137v0.047h-0.141v0.051h-0.188v0.043h-0.461
		v0.047h-0.742v-0.047h-0.508v-0.043h-0.324V17.12h-0.184v-0.047h-0.141V17.03h-0.141v-0.047h-0.137v-0.051h-0.094V16.89h-0.094
		v-0.047h-0.09V16.8h-0.047v-0.047h-0.09v-0.051h-0.047v-0.047h-0.047v-0.043h-0.047v-0.047h-0.094v-0.043h-0.047v-0.051h-0.047
		v-0.047h-0.047v-0.043h-0.043v-0.047h-0.047v-0.051h-0.047v-0.09h-0.047v-0.043h-0.047v-0.047h-0.047v-0.051h-0.047v-0.047h-0.047
		v-0.043h-0.047v-0.046h-0.043v-0.052h-0.048v-0.043h-0.14v-0.047h-0.094v0.047h-0.32v0.043h-0.141v0.098h-0.047v0.043h-0.043v0.098
		h-0.047v0.09h-0.047v0.371h0.047v0.137h0.047V16.8h0.043v0.09h0.047v0.043h0.047v0.098h0.094v0.043h0.047v0.098h0.047v0.043h0.047
		v0.047h0.043v0.043h0.094v0.098h0.043v0.047h0.047v0.043h0.047v0.047h0.047v0.044h0.141v0.05h0.043v0.047h0.047v0.043h0.047v0.047
		h0.141v0.051h0.047v0.043h0.094v0.047h0.043v0.043h0.141V18h0.094v0.05h0.094v0.047h0.137v0.043h0.137v0.047h0.14v0.043h0.138
		v0.051h0.234v0.047h0.23v0.043h0.328v0.048h1.477V18.37h0.277v-0.043h0.234V18.28h0.23v-0.051h0.141v-0.043h0.141V18.14h0.137
		v-0.043h0.141V18.05h0.09V18h0.09v-0.048h0.047v-0.043h0.141v-0.047h0.047v-0.043h0.094v-0.051h0.09v-0.047h0.094v-0.043h0.047
		v-0.047h0.047v-0.05h0.047v-0.044h0.094v-0.047h0.047v-0.043h0.043v-0.047h0.047v-0.051h0.047v-0.047h0.094v-0.043h0.047v-0.09
		h0.047V17.12h0.043v-0.047h0.047v-0.09h0.09v-0.051h0.047v-0.09h0.047v-0.09h0.047v-0.098h0.047v-0.09h0.047v-0.094h0.094v-0.137
		h0.047v-0.141h0.043v-0.188h0.047v-0.273h0.047v-0.695h-0.047v-0.324h-0.047v-0.188h-0.043V14.39h-0.047v-0.14h-0.094v-0.091
		h-0.047v-0.094h-0.047v-0.09h-0.047v-0.098h-0.047v-0.046h-0.047v-0.091h-0.09V13.69h-0.047v-0.043h-0.043v-0.047h-0.047v-0.043
		h-0.047v-0.047h-0.094V13.46h-0.047v-0.042h-0.047V13.37h-0.043v-0.043h-0.047v-0.055h-0.094v-0.043h-0.094v-0.047h-0.047V13.14
		h-0.094v-0.047h-0.09v-0.05h-0.094V13h-0.094v-0.048h-0.141v-0.043h-0.09v-0.047h-0.09v-0.051h-0.141v-0.043h-0.137v-0.047h-0.141
		v-0.043h-0.141v-0.051h-0.184v-0.046h-0.281v-0.044h-0.185v-0.047h-0.183v-0.043h-0.184v-0.055h-0.234v-0.043h-0.324v-0.047h-0.325
		v-0.043h-0.366v-0.047h-0.234v-0.051h-0.184V12.12h-0.281v-0.047h-0.137V12.03h-0.094v-0.051h-0.094v-0.047h-0.09V11.89h-0.047
		v-0.047h-0.09V11.8h-0.047v-0.055h-0.047v-0.043h-0.047v-0.047h-0.047v-0.043h-0.047v-0.098h-0.047v-0.043h-0.047v-0.09h-0.047
		v-0.098h-0.043v-0.133h-0.047v-0.188h-0.047v-0.512h0.047v-0.137h0.047v-0.141h0.043v-0.091h0.047V9.987h0.047V9.944h0.047v-0.09
		h0.047V9.804h0.047V9.757h0.047V9.713h0.047V9.668h0.047V9.625h0.043V9.569h0.094V9.526h0.043V9.479h0.094V9.437h0.093V9.386h0.095
		V9.338h0.09V9.295h0.141V9.25h0.188V9.207h0.184V9.156h0.188V9.108h0.461V9.065h0.926v0.043h0.277v0.047h0.184v0.051h0.188V9.25
		h0.137v0.045h0.094v0.043h0.094v0.048h0.094v0.051h0.094v0.043h0.043v0.047h0.047v0.043h0.094v0.056h0.047v0.043h0.047v0.045h0.042
		v0.044h0.048v0.047h0.047v0.051h0.043v0.043h0.047v0.047h0.047v0.043h0.047v0.048h0.047v0.049h0.047v0.043h0.047v0.048h0.047v0.043
		h0.047v0.051h0.043v0.047h0.047v0.043h0.094v0.047h0.141v0.047h0.23v-0.047h0.094v-0.047h0.094v-0.043h0.043v-0.047h0.047v-0.094
		h0.09v-0.091h0.047V9.757h-0.047V9.625h-0.09V9.526h-0.047v-0.09h-0.043V9.338h-0.047V9.295h-0.047V9.207h-0.094V9.156h-0.047
		V9.108h-0.047V9.065h-0.043v-0.09h-0.047V8.92h-0.094V8.877h-0.047V8.832h-0.047V8.789h-0.047V8.738h-0.094V8.69h-0.09V8.647
		h-0.047V8.601h-0.047V8.558h-0.094V8.506h-0.094V8.459h-0.09V8.417h-0.095V8.371h-0.136V8.319h-0.094V8.272h-0.09V8.229h-0.188
		V8.183h-0.141V8.14h-0.184V8.088h-0.234V8.042h-0.277V8h-1.523V8.042z M111.254,8.042"/>
	<path fill-rule="evenodd" clip-rule="evenodd" fill="#1B1918" d="M88.336,4.644c-0.352,0-0.625,0.274-0.625,0.625v4.31
		c-0.898-1.052-2.223-1.696-3.746-1.696c-2.848,0-4.992,2.262-4.992,5.266c0,3,2.145,5.266,4.992,5.266
		c1.523,0,2.848-0.645,3.746-1.719v1.094c0,0.352,0.273,0.625,0.625,0.625c0.328,0,0.602-0.273,0.602-0.625V5.269
		C88.938,4.917,88.665,4.644,88.336,4.644L88.336,4.644z M83.965,17.163c-2.125,0-3.742-1.734-3.742-4.016
		c0-2.301,1.617-4.039,3.742-4.039s3.746,1.738,3.746,4.039C87.711,15.429,86.09,17.163,83.965,17.163L83.965,17.163z
		 M83.965,17.163"/>
	<line fill="none" stroke="#1B1918" stroke-width="1.35" stroke-linecap="round" x1="17.981" y1="0.675" x2="25.344" y2="0.675"/>
</g>
</svg>
