<svg xmlns="http://www.w3.org/2000/svg" xmlns:xlink="http://www.w3.org/1999/xlink" width="136.385" height="137.89" viewBox="0 0 136.385 137.89"><defs><style>.a{clip-path:url(#a);}.b,.d{fill:none;stroke:#000;}.b{stroke-width:1.5px;}.c{fill-rule:evenodd;}.d{stroke-linecap:round;stroke-width:1.35px;}</style><clipPath id="a"><rect width="136.385" height="137.89"/></clipPath></defs><g transform="translate(-345 -152.904)"><g transform="translate(345 152.904)"><g class="a"><path class="b" d="M67.174,1.453A66.407,66.407,0,1,1,.75,67.861,66.418,66.418,0,0,1,67.174,1.453Zm0,0" transform="translate(0.454 0.879)"/></g><path class="c" d="M21.545,32.351H14.423a1.051,1.051,0,0,0-1.068,1.066V54.78a1.067,1.067,0,0,0,2.133,0V48.76h6.057a8.2,8.2,0,0,0,0-16.409Zm0,14.309H15.488V34.444h6.057a6.108,6.108,0,0,1,0,12.216Zm0,0" transform="translate(8.083 19.566)"/><path class="c" d="M56.829,48.464a8.207,8.207,0,0,0-2.2-16.109H47.5a1.053,1.053,0,0,0-1.066,1.066V54.79a1.066,1.066,0,1,0,2.132,0V48.764h5.593l6.522,6.76a.966.966,0,0,0,.766.332,1.028,1.028,0,0,0,.734-.3,1.06,1.06,0,0,0,.037-1.5ZM48.571,34.448h6.057a6.111,6.111,0,0,1,0,12.223H48.571Zm0,0" transform="translate(28.106 19.568)"/><path class="c" d="M81.541,54.373,72.2,33a1.046,1.046,0,0,0-.96-.634,1.1,1.1,0,0,0-1,.634L60.892,54.373a1.078,1.078,0,0,0,.565,1.4,1.061,1.061,0,0,0,1.4-.533l2.458-5.66H77.12l2.5,5.66a1.02,1.02,0,0,0,.966.628,1.184,1.184,0,0,0,.433-.095,1.068,1.068,0,0,0,.525-1.4Zm-15.3-6.922,5-11.388L76.19,47.452Zm0,0" transform="translate(36.805 19.577)"/><path class="c" d="M34.813,60.838A3.946,3.946,0,0,1,30.9,56.687a4.348,4.348,0,0,1,1.047-2.914,3.657,3.657,0,0,1,2.8-1.231,3.831,3.831,0,0,1,3.776,4.145.5.5,0,0,1-.49.5H31.892a2.96,2.96,0,0,0,2.922,2.671,2.79,2.79,0,0,0,2.458-1.387.5.5,0,0,1,.841.528,3.811,3.811,0,0,1-3.3,1.841ZM31.892,56.2H37.5a2.782,2.782,0,0,0-2.759-2.689A2.879,2.879,0,0,0,31.892,56.2Zm0,0" transform="translate(18.7 31.78)"/><path class="c" d="M45.607,60.836a.49.49,0,0,1-.49-.49V53.022a.488.488,0,0,1,.49-.477.48.48,0,0,1,.49.477v7.325a.482.482,0,0,1-.49.49Zm0,0" transform="translate(27.308 31.782)"/><path class="c" d="M56.055,52.53a.48.48,0,0,0-.49.477v.859a3.84,3.84,0,0,0-2.954-1.336,4.152,4.152,0,0,0,0,8.29,3.815,3.815,0,0,0,2.954-1.347v1.5a3.1,3.1,0,0,1-5.806,1.486.486.486,0,0,0-.846.478,4.068,4.068,0,0,0,7.631-1.963v-7.97a.488.488,0,0,0-.49-.478Zm-3.442,7.306a3.177,3.177,0,1,1,2.954-3.161,3,3,0,0,1-2.954,3.161Zm0,0" transform="translate(29.475 31.772)"/><path class="c" d="M62.885,53.593a3.135,3.135,0,0,0-2.4-1.059,3.422,3.422,0,0,0-2.458,1.029v-.552a.483.483,0,0,0-.966,0v7.325a.483.483,0,1,0,.966,0V56.07a2.491,2.491,0,0,1,2.458-2.564,2.366,2.366,0,0,1,2.3,2.564v4.265a.486.486,0,1,0,.973,0V56.07a3.724,3.724,0,0,0-.88-2.477Zm0,0" transform="translate(34.54 31.775)"/><path class="c" d="M40.889,52.638h-.22v.037h-.181v.037h-.151v.037h-.106v.032h-.075v.037H40.05v.039h-.075v.035h-.108v.039h-.075v.031h-.074V53h-.032v.035h-.112v.037h-.039v.037H39.5v.032H39.39v.037h-.037v.037h-.037v.039h-.039v.035h-.03v.034h-.039v.042h-.075V53.4H39.1v.074h-.039V53.5h-.037v.043h-.039v.069h-.067v.039h-.039v.075h-.037v.031h-.039v.075H38.77v.075h-.075v.069h-.032v.112h-.037V54.2h-.039v.143h-.037v.183H38.52v.62h.031v.183h.037v.149h.039v.106h.037v.077h.032v.069h.075V55.8h.037v.069h.039v.042h.037v.069h.039v.037h.067v.032h.039V56.1h.037v.034H39.1v.035h.031V56.2h.075v.03h.039v.043h.031v.032h.039v.037h.074v.037h.075v.037h.069v.039h.039V56.5h.112v.034h.069v.035h.075V56.6h.112v.035h.069v.037h.144v.032h.112v.037h.069v.037h.151v.037h.181v.039h.144v.031h.257v.045h.183v.031h.25V57h.257v.035h.151v.034h.144v.042h.181v.032h.144v.037h.106v.037H42.6v.032h.108v.043h.112v.034H42.9v.035H43V57.4h.069v.035h.039v.037h.075V57.5h.037v.037h.034v.037h.037v.037h.039v.039h.037v.03H43.4v.039h.039v.035h.03v.075h.039v.034h.037v.074h.039v.106h.037v.112h.032v.181h.037v.252h-.037v.18h-.032v.112h-.037v.075h-.039v.075h-.037v.069h-.039v.037h-.03v.075H43.4v.032h-.037v.043h-.037v.034h-.039v.035h-.037V59.4h-.034v.03h-.037v.043h-.075v.032h-.039v.037H43v.037h-.074v.032h-.069v.045h-.075v.031H42.67v.039h-.106v.035h-.106V59.8h-.151v.035h-.364v.034H41.36v-.034h-.4V59.8H40.7v-.039h-.144v-.035h-.106v-.039h-.114v-.031h-.106v-.045h-.075V59.58h-.069v-.037h-.075v-.037h-.037v-.032h-.069v-.043h-.039V59.4H39.83v-.039h-.039v-.035h-.074v-.034h-.032V59.25h-.037v-.032H39.61v-.037h-.037v-.037h-.039v-.037H39.5v-.069h-.039V59h-.037v-.039H39.39v-.035h-.037V58.89h-.037V58.86h-.039v-.039h-.03v-.043h-.039v-.032H39.1v-.037h-.075v.037H38.77v.032h-.108v.083h-.037v.03h-.039v.075H38.55v.075h-.03v.291h.031v.1h.037v.075h.039v.075h.037v.032h.032V59.7h.075v.039h.037v.075h.039v.035h.037v.034h.039v.035h.067v.075h.039v.037h.037v.032H39.1V60.1h.031v.039h.114v.035h.031v.039h.039v.031h.037v.039h.112v.042H39.5v.032h.069v.037h.037v.032h.108v.037h.074V60.5h.075v.034h.108v.035h.112V60.6h.106v.035H40.3v.043h.188v.032h.181v.037h.258v.032h1.159v-.032h.22v-.037h.181v-.032h.181v-.043h.114V60.6H42.9v-.034H43v-.035h.108V60.5h.075v-.043h.069V60.42h.037v-.032H43.4v-.037h.039v-.032h.069v-.042h.075v-.039h.069v-.031h.037V60.17h.039v-.035h.037V60.1h.075v-.037h.037v-.032h.032V59.99h.037v-.037h.039v-.037h.069v-.035h.037v-.069h.039v-.039h.037v-.035h.037v-.069h.069v-.045h.039v-.069h.037v-.069h.039v-.074h.037v-.075h.039v-.077h.069v-.106h.037v-.106h.037V58.9h.032v-.214h.037v-.551h-.037v-.257h-.032v-.144H44.57v-.108h-.037v-.112h-.069v-.069h-.039v-.075h-.037V57.3H44.35v-.075h-.037v-.037h-.039v-.069h-.069v-.042h-.037v-.034h-.037v-.035h-.039v-.039h-.037v-.031h-.069v-.045h-.039v-.031h-.037v-.039H43.88v-.037h-.037v-.037h-.075v-.037h-.075V56.68h-.037v-.037h-.069v-.035h-.075v-.039h-.069v-.035h-.075V56.5h-.112v-.035h-.069v-.039h-.075v-.037H43v-.037H42.9v-.037h-.112v-.032H42.67V56.24h-.143v-.031h-.22v-.039h-.144v-.035h-.144V56.1h-.144v-.043h-.188v-.032h-.25v-.037h-.257v-.037h-.289V55.92H40.7v-.042h-.144v-.034h-.22V55.81h-.106v-.039h-.075v-.035h-.069V55.7h-.075v-.031h-.037v-.039h-.069v-.037h-.039v-.037H39.83v-.037h-.039v-.032h-.037v-.037h-.037v-.075h-.032v-.035h-.037v-.069H39.61v-.077h-.037v-.106h-.039v-.143H39.5v-.408h.031v-.108h.039v-.112h.037v-.069h.039v-.075h.037v-.035h.032v-.069h.037v-.039h.037v-.037h.039v-.037h.037v-.032h.039v-.037h.037v-.037h.069v-.035h.039v-.039h.069v-.031h.074V53.7h.075v-.03h.069V53.63h.114v-.037h.143v-.032h.144v-.043h.151v-.032h.364v-.037h.727v.037H42.2v.032h.144v.043h.144v.032H42.6v.037h.069v.039h.075v.03h.075v.045H42.9v.031h.032v.039h.037v.035h.075v.037h.031v.037h.039v.032h.037v.037h.039v.037h.037v.039h.034V54.1h.037v.034h.039v.035h.037v.039H43.4v.035h.039v.037h.03v.032h.039v.037h.037V54.4h.039v.031h.037v.039h.069V54.5h.112v.034h.183V54.5h.069v-.035h.075v-.039h.037V54.4h.037v-.083h.069v-.069h.039v-.257h-.039V53.88h-.069v-.074H44.17v-.069h-.037v-.075H44.1v-.039h-.037v-.069h-.069v-.043h-.039v-.032h-.037v-.037h-.032v-.069h-.037v-.042h-.075V53.3h-.037v-.035h-.039v-.039h-.037v-.037h-.069V53.15h-.075v-.032h-.039v-.037h-.031v-.037h-.075v-.035h-.075V52.97h-.069v-.03h-.075V52.9h-.106v-.035h-.075v-.039H42.9V52.79h-.151v-.032h-.106v-.037H42.49v-.037h-.181v-.037h-.22v-.035h-1.2v.026Zm0,0" transform="translate(23.315 31.822)"/><path class="c" d="M30.268,50.941a.491.491,0,0,0-.494.494v3.392a3.819,3.819,0,0,0-2.947-1.336,4.151,4.151,0,0,0,0,8.29,3.776,3.776,0,0,0,2.947-1.347v.859a.486.486,0,1,0,.971,0v-9.86a.488.488,0,0,0-.477-.493ZM26.826,60.8a3.181,3.181,0,1,1,2.947-3.167A3,3,0,0,1,26.826,60.8Zm0,0" transform="translate(13.858 30.811)"/><path class="c" d="M38.387,55.844a9.438,9.438,0,0,1-9.418-9.455V33.409a1.047,1.047,0,1,1,2.093,0v12.98a7.324,7.324,0,0,0,14.648,0V33.409a1.067,1.067,0,0,1,2.133,0v12.98a9.445,9.445,0,0,1-9.457,9.455Zm0,0" transform="translate(17.534 19.561)"/><line class="d" x2="11.263" transform="translate(50.083 48.271)"/></g></g></svg>